<?xml version="1.0" encoding="utf-8"?>
<!-- Generator: Adobe Illustrator 24.2.0, SVG Export Plug-In . SVG Version: 6.00 Build 0)  -->
<svg version="1.1" id="图层_1" xmlns="http://www.w3.org/2000/svg" xmlns:xlink="http://www.w3.org/1999/xlink" x="0px" y="0px"
	 viewBox="0 0 320 338" style="enable-background:new 0 0 320 338;" xml:space="preserve">
<style type="text/css">
	.st0{fill:#014072;}
	.st1{fill:#FFFFFF;}
	.st2{font-family:'PingFangSC-Semibold-GBpc-EUC-H';}
	.st3{font-size:12px;}
</style>
<g>
	<path class="st0" d="M172.93,208.48c-9.8,15.28-26.63,25.63-45.93,26.46v61.03c41.51-0.86,77.77-23.07,98.26-56.09L172.93,208.48z"
		/>
	
		<image style="overflow:visible;" width="200" height="200" xlink:href="../../assets/imgs/map/button/WechatIMG41.png"  transform="matrix(0.18 0 0 0.18 150 233)">
	</image>
</g>
<g>
	<path class="st0" d="M73.04,203.22l-55.36,25.69c18.77,38.98,58.23,66.12,104.16,67.13l0.08-61.03
		C100.48,234.07,82.1,221.37,73.04,203.22z"/>
	
		<image style="overflow:visible;" width="200" height="200" xlink:href="../../assets/imgs/map/button/WechatIMG42.png"  transform="matrix(0.185 0 0 0.185 61 231)">
	</image>
</g>
<g>
	<path class="st0" d="M175.09,150.18l55.37-25.79C211.34,86.32,172.29,59.97,127,59.03v61.03
		C147.81,120.95,165.74,132.9,175.09,150.18z"/>
	
		<image style="overflow:visible;" width="200" height="200" xlink:href="../../assets/imgs/map/button/WechatIMG43.png"  transform="matrix(0.16 0 0 0.16 155 86)">
	</image>
</g>
<g>
	<path class="st0" d="M76.55,145.85l-49.87-35.15C13.67,129.69,6.03,152.66,6,177.42c-0.02,16.67,3.41,32.54,9.6,46.94L71,198.66
		c-2.58-6.55-4.01-13.68-4-21.15C67.02,165.8,70.53,154.92,76.55,145.85z"/>
	
		<image style="overflow:visible;" width="320" height="200" xlink:href="../../assets/imgs/map/button/WechatIMG44.png"  transform="matrix(0.1562 0 0 0.1562 13 152)">
	</image>
</g>
<g>
	<path class="st0" d="M79.49,141.8c10.07-12.64,25.35-20.94,42.59-21.66l0.08-61.03c-37.87,0.73-71.39,19.24-92.57,47.52
		L79.49,141.8z"/>
	
		<image style="overflow:visible;" width="200" height="200" xlink:href="../../assets/imgs/map/button/WechatIMG45.png"  transform="matrix(0.165 0 0 0.165 70 81)">
	</image>
</g>
<g>
	<path class="st0" d="M175.45,204.16l52.36,31.42C237.48,218.42,243,198.6,243,177.5c0-17.32-3.72-33.76-10.39-48.59l-55.33,25.77
		c3.03,7,4.72,14.71,4.72,22.82C182,187.12,179.63,196.19,175.45,204.16z"/>
	
		<image style="overflow:visible;" width="200" height="200" xlink:href="../../assets/imgs/map/button/WechatIMG40.png"  transform="matrix(0.14 0 0 0.14 199 164)">
	</image>
</g>
<path class="st0" d="M204.58,2.51l-34.63,55.51c47.62,18.28,81.42,64.43,81.42,118.48c0,50.61-29.64,94.29-72.5,114.66l55.23,42.38
	C283.61,298.92,316,241.49,316,176.5C316,99.33,270.35,32.83,204.58,2.51z"/>
<g>
	<text transform="matrix(1 0 0 1 226.8672 65.9141)" class="st1 st2 st3">1</text>
	<path class="st1" d="M230,50c-6.63,0-12,5.37-12,12c0,6.63,5.37,12,12,12s12-5.37,12-12C242,55.37,236.63,50,230,50z M230,72.46
		c-5.78,0-10.46-4.68-10.46-10.46c0-5.78,4.68-10.46,10.46-10.46s10.46,4.68,10.46,10.46C240.46,67.78,235.78,72.46,230,72.46z"/>
</g>
<g>
	<text transform="matrix(1 0 0 1 261.8672 110.9141)" class="st1 st2 st3">2</text>
	<path class="st1" d="M266,95c-6.63,0-12,5.37-12,12c0,6.63,5.37,12,12,12s12-5.37,12-12C278,100.37,272.63,95,266,95z M266,117.46
		c-5.78,0-10.46-4.68-10.46-10.46c0-5.78,4.68-10.46,10.46-10.46s10.46,4.68,10.46,10.46C276.46,112.78,271.78,117.46,266,117.46z"
		/>
</g>
<g>
	<text transform="matrix(1 0 0 1 279.8672 174.9141)" class="st1 st2 st3">3</text>
	<path class="st1" d="M284,159c-6.63,0-12,5.37-12,12c0,6.63,5.37,12,12,12s12-5.37,12-12C296,164.37,290.63,159,284,159z
		 M284,181.46c-5.78,0-10.46-4.68-10.46-10.46c0-5.78,4.68-10.46,10.46-10.46s10.46,4.68,10.46,10.46
		C294.46,176.78,289.78,181.46,284,181.46z"/>
</g>
<g>
	<text transform="matrix(1 0 0 1 270.8672 232.9141)" class="st1 st2 st3">4</text>
	<path class="st1" d="M275,217c-6.63,0-12,5.37-12,12c0,6.63,5.37,12,12,12s12-5.37,12-12C287,222.37,281.63,217,275,217z
		 M275,239.46c-5.78,0-10.46-4.68-10.46-10.46c0-5.78,4.68-10.46,10.46-10.46s10.46,4.68,10.46,10.46
		C285.46,234.78,280.78,239.46,275,239.46z"/>
</g>
<g>
	<text transform="matrix(1 0 0 1 241.8672 285.9141)" class="st1 st2 st3">5</text>
	<path class="st1" d="M246,270c-6.63,0-12,5.37-12,12c0,6.63,5.37,12,12,12s12-5.37,12-12C258,275.37,252.63,270,246,270z
		 M246,292.46c-5.78,0-10.46-4.68-10.46-10.46c0-5.78,4.68-10.46,10.46-10.46s10.46,4.68,10.46,10.46
		C256.46,287.78,251.78,292.46,246,292.46z"/>
</g>
</svg>
